<svg width="540" height="369" viewBox="0 0 540 369" fill="none" xmlns="http://www.w3.org/2000/svg">
<g clip-path="url(#clip0_29_965)">
<path d="M101.229 197.272C143.358 198.467 153.992 164.189 154.717 149.262C156.402 115.91 158.795 103.71 158.795 103.71C158.795 103.71 146.358 103.44 125.395 97.9713C87.4948 88.0934 71.6203 108.59 71.6203 108.59C72.1595 99.3681 73.4572 87.1006 80.9563 75.8764C84.1197 71.097 88.3942 67.1529 93.4151 64.3809C98.436 61.6088 104.054 60.0912 109.79 59.9574H198.076C208.474 59.9574 212.468 57.7025 212.468 57.7025L224.264 50.6347C224.264 50.6347 220.894 55.8178 217.675 61.4888C214.305 67.5468 213.782 71.3498 215.501 79.3094C216.731 84.9635 243.745 155.506 248.901 169.069C254.058 182.632 259.501 185.055 259.501 185.055C255.423 187.781 251.901 197.407 251.901 197.407C251.901 197.407 251.682 198.366 260.125 208.53C269.596 219.939 279.858 222.211 279.858 222.211C279.858 222.211 285.47 212.114 289.279 205.131C293.211 197.72 297.879 190.724 303.215 184.247C302.996 184.13 302.743 183.961 302.507 183.81C301.452 183.068 300.46 182.241 299.541 181.336C298.259 180.053 297.049 178.699 295.918 177.281L295.632 176.911L295.497 176.742C290.714 170.148 286.995 162.846 284.476 155.102C276.286 131.98 255.827 70.9627 251.395 58.1567C249.265 51.4127 248.436 44.3263 248.952 37.2736C250.637 24.6695 253.3 22.6332 253.3 22.6332C253.3 22.6332 251.396 20.6307 240.627 19.4696C229.859 18.3085 199.526 18.7461 199.526 18.7461H104.077C97.5553 18.7461 76.9622 17.4672 55.9649 40.4372C40.7982 57.0462 26.2552 81.2951 26.9629 121.429C27.6707 162.557 53.6898 195.825 101.229 197.272ZM87.7474 139.873C91.2189 132.468 101.869 128.665 109.301 128.665C116.733 128.665 124.468 127.942 124.468 127.942C124.468 127.942 124.114 139.317 123.743 141.858C123.372 144.399 122.058 158.097 110.346 161.917C106.805 163.256 102.926 163.421 99.2843 162.388C95.6422 161.354 92.4301 159.177 90.1236 156.179C90.1236 156.179 83.8377 148.101 87.7305 139.788L87.7474 139.873Z" fill="#2B347A"/>
<path d="M220.321 262.345C220.321 262.345 210.648 283.952 206.031 293.712C201.413 303.473 211.743 319.476 211.743 319.476C209.046 315.814 205.547 312.816 201.514 310.708C196.894 307.817 191.564 306.256 186.112 306.199C186.112 306.199 129.489 307.006 104.785 306.199C87.2924 305.61 79.271 292.046 75.2098 282.135C74.4514 280.284 73.8279 278.551 73.3055 277.087C71.6203 272.543 68.8734 265.812 66.3288 260.444C65.9749 259.72 65.5872 259.013 65.1828 258.273C46.6458 222.362 13.0265 223.877 13.0265 223.877C10.132 223.855 7.264 224.428 4.60055 225.56C2.70306 226.475 1.08119 227.874 -0.101074 229.615C0.182233 229.503 0.489127 229.462 0.792019 229.497C2.70853 229.65 4.56744 230.225 6.23523 231.18L7.12832 231.769C9.79091 233.822 14.6949 239.19 20.2728 252.972C20.8795 254.504 21.4018 255.883 21.8062 256.944L22.4466 258.626C22.6825 259.299 22.9185 259.956 23.1544 260.663C29.0863 277.171 30.7378 285.399 39.1805 311.668C52.0385 351.718 101.364 348.285 101.364 348.285C101.364 348.285 207.008 347.999 222.208 348.285C237.409 348.571 241.487 346.383 241.487 346.383C234.982 334.991 240.459 319.711 246.93 305.425C251.581 295.299 255.243 284.75 257.867 273.923C251.142 275.487 244.123 275.239 237.526 273.204C230.929 271.17 224.992 267.423 220.321 262.345Z" fill="#2B347A"/>
<path d="M539.983 184.5C534.927 182.582 517.537 155.085 495.09 121.48C477.345 94.8919 454.881 105.224 446.22 110.592L442.849 112.662L442.613 112.814C442.613 112.814 444.652 110.172 447.028 102.431V102.296C447.264 101.505 447.5 100.613 447.753 99.7888C447.753 99.469 447.905 99.0988 447.972 98.7455C452.303 80.5714 445.175 69.7513 443.894 67.9844C443.104 66.6858 442.249 65.4278 441.333 64.215C440.389 63.0146 439.361 61.8029 438.249 60.5801C422.576 43.3484 393.237 24.5517 382.637 18.0057C374.121 12.7126 366.071 6.706 358.573 0.0505676C351.065 6.70052 343.01 12.7067 334.492 18.0057C321.01 26.4196 276.05 55.2793 269.579 74.8164L289.7 137.298C293.495 138.024 297.134 139.408 300.451 141.387C300.451 141.387 293.576 119.612 302.271 100.899C310.697 82.7423 328.156 70.6094 343.895 60.5127C349.109 57.2294 354.021 53.4901 358.573 49.3391C363.118 53.4917 368.024 57.2311 373.234 60.5127C388.974 70.6094 406.432 82.6581 414.875 100.899C423.554 119.612 416.678 141.387 416.678 141.387C416.678 141.387 444.972 122.658 469.913 159.342C484.49 180.798 488.585 184.248 489.057 184.584C488.585 184.937 484.49 188.286 469.913 209.826C444.972 246.51 416.678 227.764 416.678 227.764C416.678 227.764 423.554 249.539 414.875 268.269C406.449 286.426 388.974 298.559 373.234 308.555C368.029 311.843 363.123 315.582 358.573 319.728C354.024 315.582 349.118 311.843 343.912 308.555C328.156 298.458 310.697 286.426 302.271 268.269C293.593 249.539 300.468 227.764 300.468 227.764C300.468 227.764 272.174 246.51 247.233 209.826C234.004 190.339 229.421 185.779 228.325 184.853C228.983 184.534 231.106 182.413 237.981 172.687L219.765 125.148C219.478 125.552 219.175 125.939 218.888 126.377C196.442 160.032 182.421 182.683 177.365 184.601C182.421 186.519 199.812 214.033 222.259 247.638C238.335 271.719 258.473 265.156 268.584 259.788C272.578 257.667 275.005 256.186 275.005 256.186L274.904 256.304C272.508 259.715 270.759 263.537 269.747 267.579C269.747 267.899 269.562 268.185 269.478 268.504C268.005 274.071 267.436 279.838 267.792 285.585C268.293 290.456 269.741 295.184 272.056 299.501C283.549 318.618 322.106 343.371 334.408 351.078C342.923 356.375 350.978 362.375 358.489 369.017C366.002 362.379 374.057 356.379 382.57 351.078C393.962 343.994 427.447 322.471 441.72 304.247C446.28 297.72 448.833 290.006 449.067 282.051C449.048 280.223 448.935 278.398 448.731 276.582C448.143 271.621 447.013 266.74 445.36 262.026C444.8 260.285 444.09 258.595 443.237 256.977C446.152 258.686 449.174 260.204 452.286 261.521C462.937 266.048 480.328 269.228 494.77 247.604C517.216 213.949 534.591 186.486 539.663 184.567L539.983 184.5Z" fill="#2B347A"/>
<mask id="mask0_29_965" style="mask-type:luminance" maskUnits="userSpaceOnUse" x="177" y="0" width="363" height="370">
<path d="M539.983 184.5C534.927 182.582 517.537 155.085 495.09 121.48C477.345 94.8919 454.881 105.224 446.22 110.592L442.849 112.662L442.613 112.814C442.613 112.814 444.652 110.172 447.028 102.431V102.296C447.264 101.505 447.5 100.613 447.753 99.7887C447.753 99.469 447.905 99.0988 447.972 98.7454C452.303 80.5714 445.175 69.7513 443.894 67.9844C443.104 66.6858 442.249 65.4278 441.333 64.215C440.389 63.0146 439.361 61.8029 438.249 60.5801C422.576 43.3484 393.237 24.5517 382.637 18.0057C374.121 12.7126 366.071 6.70597 358.573 0.0505371C351.065 6.70049 343.01 12.7067 334.492 18.0057C321.01 26.4196 276.05 55.2793 269.579 74.8163L289.7 137.298C293.495 138.024 297.134 139.408 300.451 141.387C300.451 141.387 293.576 119.612 302.271 100.899C310.697 82.7422 328.156 70.6094 343.895 60.5127C349.109 57.2293 354.021 53.4901 358.573 49.339C363.118 53.4917 368.024 57.2311 373.234 60.5127C388.974 70.6094 406.432 82.6581 414.875 100.899C423.554 119.612 416.678 141.387 416.678 141.387C416.678 141.387 444.972 122.658 469.913 159.342C484.49 180.798 488.585 184.247 489.057 184.584C488.585 184.937 484.49 188.286 469.913 209.826C444.972 246.51 416.678 227.764 416.678 227.764C416.678 227.764 423.554 249.539 414.875 268.269C406.449 286.426 388.974 298.559 373.234 308.555C368.029 311.843 363.123 315.582 358.573 319.728C354.024 315.582 349.118 311.843 343.912 308.555C328.156 298.458 310.697 286.426 302.271 268.269C293.593 249.539 300.468 227.764 300.468 227.764C300.468 227.764 272.174 246.51 247.233 209.826C234.004 190.339 229.421 185.779 228.325 184.853C228.983 184.534 231.106 182.413 237.981 172.687L219.765 125.148C219.478 125.552 219.175 125.939 218.888 126.377C196.442 160.032 182.421 182.683 177.365 184.601C182.421 186.519 199.812 214.033 222.259 247.638C238.335 271.719 258.473 265.156 268.584 259.788C272.578 257.667 275.005 256.186 275.005 256.186L274.904 256.304C272.508 259.715 270.759 263.537 269.747 267.579C269.747 267.899 269.562 268.185 269.478 268.504C268.005 274.071 267.436 279.838 267.792 285.585C268.293 290.456 269.741 295.184 272.056 299.501C283.549 318.618 322.106 343.371 334.408 351.078C342.923 356.375 350.978 362.375 358.489 369.017C366.002 362.379 374.057 356.379 382.57 351.078C393.962 343.994 427.447 322.471 441.72 304.247C446.28 297.719 448.833 290.006 449.067 282.051C449.048 280.223 448.935 278.398 448.731 276.582C448.143 271.621 447.013 266.74 445.36 262.026C444.8 260.285 444.09 258.595 443.237 256.977C446.152 258.686 449.174 260.204 452.286 261.521C462.937 266.048 480.328 269.228 494.77 247.604C517.216 213.949 534.591 186.486 539.663 184.567L539.983 184.5Z" fill="white"/>
</mask>
<g mask="url(#mask0_29_965)">
<path d="M313.427 29.6001L334.61 46.1417L335.419 15.8517C335.419 15.8517 318.584 29.3308 313.427 29.6001Z" fill="#F3D4AE"/>
<path d="M408.927 334.133L401.326 289.118L442.057 305.391C442.057 305.391 425.222 327.082 408.927 334.133Z" fill="#008D9C"/>
<path d="M374.7 66.3857L421.144 52.0147L409.466 92.149L374.7 66.3857Z" fill="#ED6830"/>
<path d="M442.967 65.6116C442.967 65.6116 415.718 81.7158 425.509 130.988C425.509 130.988 474.379 135.245 485.265 110.054C485.265 110.054 475.525 90.6681 452.421 101.488C452.455 101.488 459.448 80.1677 442.967 65.6116Z" fill="#EE3F24"/>
<path d="M498.174 122.422L479.721 164.727L525.878 166.36L498.174 122.422Z" fill="#ED6830"/>
<path d="M446.574 297.431L421.06 272.997L449.843 268.656C449.843 268.656 454.763 284.962 446.574 297.431Z" fill="#70ADA2"/>
<path d="M507.594 230.171L489.124 195.472L533.664 193.301L507.594 230.171Z" fill="#F8A768"/>
<path d="M470.116 266.266L461.42 224.5L502.168 238.601C502.168 238.601 489.664 264.163 470.116 266.266Z" fill="#F3D4AE"/>
<path d="M371.819 9.89474L372.088 42.4229L399.237 27.2442L371.819 9.89474Z" fill="#F8A768"/>
<path d="M224.399 131.055L222.377 129.658L184.966 184.534L187.932 184.55L224.399 131.055Z" fill="#EE3F24"/>
<path d="M228.999 137.668L226.96 136.288L194.15 184.584L197.116 184.601L228.999 137.668Z" fill="#EE3F24"/>
<path d="M233.566 143.743L231.527 142.363L202.778 184.635H205.761L233.566 143.743Z" fill="#EE3F24"/>
<path d="M237.897 150.642L235.875 149.246L211.592 184.668L214.557 184.685L237.897 150.642Z" fill="#EE3F24"/>
<path d="M242.953 157.475L240.947 156.061L220.675 184.719L223.674 184.736L242.953 157.475Z" fill="#EE3F24"/>
</g>
<mask id="mask1_29_965" style="mask-type:luminance" maskUnits="userSpaceOnUse" x="-1" y="223" width="259" height="126">
<path d="M220.321 262.345C220.321 262.345 210.648 283.952 206.031 293.712C201.413 303.473 211.743 319.476 211.743 319.476C209.046 315.814 205.547 312.816 201.514 310.708C196.894 307.817 191.564 306.256 186.112 306.199C186.112 306.199 129.489 307.006 104.785 306.199C87.2924 305.61 79.271 292.046 75.2098 282.135C74.4514 280.284 73.8279 278.551 73.3055 277.087C71.6203 272.543 68.8734 265.812 66.3288 260.444C65.9749 259.72 65.5872 259.013 65.1828 258.273C46.6458 222.362 13.0265 223.877 13.0265 223.877C10.132 223.855 7.264 224.428 4.60055 225.56C2.70306 226.475 1.08119 227.874 -0.101074 229.615C0.182233 229.502 0.489127 229.462 0.792019 229.497C2.70853 229.65 4.56744 230.225 6.23523 231.18L7.12832 231.769C9.79091 233.822 14.6949 239.19 20.2728 252.972C20.8795 254.503 21.4018 255.883 21.8062 256.944L22.4466 258.626C22.6825 259.299 22.9185 259.956 23.1544 260.663C29.0863 277.171 30.7378 285.399 39.1805 311.668C52.0385 351.718 101.364 348.285 101.364 348.285C101.364 348.285 207.008 347.999 222.208 348.285C237.409 348.571 241.487 346.383 241.487 346.383C234.982 334.991 240.459 319.711 246.93 305.424C251.581 295.299 255.243 284.75 257.867 273.923C251.142 275.487 244.123 275.239 237.526 273.204C230.929 271.17 224.992 267.423 220.321 262.345Z" fill="white"/>
</mask>
<g mask="url(#mask1_29_965)">
<path d="M195.65 348.234L197.554 322.993L227.163 349.025C227.163 349.025 199.728 350.674 195.65 348.234Z" fill="#EE3F24"/>
<path d="M192.128 305.374L173.119 347.679L150.571 305.929L192.128 305.374Z" fill="#ED6830"/>
<path d="M107.127 348.773L123.423 322.202L135.101 349.85L107.127 348.773Z" fill="#F8A768"/>
<path d="M119.345 306.199L87.579 335.479L87.8486 298.323L101.145 304.566L119.345 306.199Z" fill="#F3D4AE"/>
<path d="M84.5963 296.708L47.1178 305.374L70.4744 269.312L84.5963 296.708Z" fill="#70ADA2"/>
<path d="M70.5418 263.624L45.264 267.141L54.4988 242.741C54.4988 242.741 65.0312 248.715 70.5418 263.624Z" fill="#008D9C"/>
</g>
<mask id="mask2_29_965" style="mask-type:luminance" maskUnits="userSpaceOnUse" x="26" y="18" width="278" height="205">
<path d="M101.229 197.272C143.358 198.467 153.992 164.189 154.716 149.262C156.402 115.91 158.795 103.71 158.795 103.71C158.795 103.71 146.358 103.44 125.394 97.9713C87.4946 88.0934 71.6202 108.59 71.6202 108.59C72.1594 99.3681 73.4571 87.1005 80.9561 75.8764C84.1196 71.097 88.3941 67.1529 93.415 64.3808C98.4359 61.6088 104.054 60.0911 109.79 59.9574H198.076C208.474 59.9574 212.468 57.7025 212.468 57.7025L224.264 50.6347C224.264 50.6347 220.894 55.8178 217.675 61.4888C214.305 67.5468 213.782 71.3498 215.501 79.3093C216.731 84.9635 243.745 155.506 248.901 169.069C254.058 182.632 256.451 182.093 256.451 182.093C252.373 184.82 248.851 194.445 248.851 194.445C248.851 194.445 251.682 198.366 260.125 208.53C269.595 219.939 279.858 222.211 279.858 222.211C279.858 222.211 285.47 212.114 289.278 205.131C293.211 197.72 297.879 190.724 303.215 184.247C302.996 184.13 302.743 183.961 302.507 183.81C301.452 183.068 300.46 182.241 299.541 181.336C298.259 180.053 297.049 178.699 295.918 177.281L295.631 176.911L295.497 176.742C290.714 170.148 286.995 162.846 284.475 155.102C276.286 131.98 255.827 70.9626 251.395 58.1567C249.265 51.4127 248.436 44.3263 248.952 37.2735C250.637 24.6695 253.3 22.6332 253.3 22.6332C253.3 22.6332 251.396 20.6307 240.627 19.4696C229.859 18.3085 199.526 18.7461 199.526 18.7461H104.077C97.5551 18.7461 76.9621 17.4672 55.9647 40.4372C40.7981 57.0462 26.255 81.2951 26.9628 121.429C27.6706 162.557 53.6897 195.825 101.229 197.272ZM87.7473 139.873C91.2187 132.468 101.869 128.665 109.301 128.665C116.732 128.665 124.467 127.942 124.467 127.942C124.467 127.942 124.113 139.317 123.743 141.858C123.372 144.399 122.058 158.097 110.346 161.917C106.805 163.256 102.926 163.421 99.2841 162.388C95.642 161.354 92.4299 159.177 90.1234 156.179C90.1234 156.179 83.8376 148.101 87.7304 139.788L87.7473 139.873Z" fill="white"/>
</mask>
<g mask="url(#mask2_29_965)">
<path d="M105.779 18.2077L125.597 51.5604L144.066 18.4769L105.779 18.2077Z" fill="#008D9C"/>
<path d="M50.3195 42.8941L81.4616 75.0688C81.4616 75.0688 76.0185 85.1655 76.4061 90.6177L30.4174 89.1705C30.4174 89.1705 34.7147 59.1497 50.3195 42.8941Z" fill="#F3D4AE"/>
<path d="M25.6653 98.5604L71.2831 115.927L27.1145 130.382C27.1145 130.382 24.5699 106.89 25.6653 98.5604Z" fill="#F8A768"/>
<path d="M29.6424 146.301L81.428 140.512L53.1843 184.988C53.1843 184.988 28.9177 164.004 29.6424 146.301Z" fill="#ED6830"/>
<path d="M65.8568 190.407L94.5049 160.756L99.9312 162.927L99.5773 199.443C99.5773 199.443 78.1586 199.443 65.8568 190.407Z" fill="#EE3F24"/>
<path d="M91.2021 18.6621L92.2807 55.902L57.1615 33.4875C57.1615 33.4875 72.0079 17.5683 91.2021 18.6621Z" fill="#70ADA2"/>
<path d="M273.168 221.774L275.291 223.002L297.772 184.264L294.89 184.315L273.168 221.774Z" fill="#008D9C"/>
<path d="M267.186 218.509L269.326 219.737L289.683 184.416L286.801 184.466L267.186 218.509Z" fill="#008D9C"/>
<path d="M262.029 213.612L264.152 214.841L281.628 184.567L278.746 184.618L262.029 213.612Z" fill="#008D9C"/>
<path d="M255.861 210.768L258.002 211.98L273.657 184.719L270.792 184.769L255.861 210.768Z" fill="#008D9C"/>
<path d="M249.677 208.109L251.817 209.321L265.838 184.853L262.973 184.904L249.677 208.109Z" fill="#008D9C"/>
</g>
<path d="M336.918 167.605C338.634 169.563 339.559 172.088 339.514 174.689V188.858H343.086C345.114 188.833 347.109 189.372 348.847 190.416C350.585 191.459 351.998 192.965 352.928 194.765C353.398 195.461 354.051 196.014 354.814 196.364C355.578 196.714 356.424 196.848 357.259 196.751C361.236 196.751 363.241 194.647 363.241 190.44C363.241 188.32 362.601 187.277 361.337 187.277C360.69 187.289 360.058 187.469 359.503 187.8C358.947 188.13 358.488 188.6 358.169 189.161C356.281 188.539 355.321 187.479 355.321 186.015C355.321 182.649 357.326 180.966 361.337 180.966C366.819 180.966 369.56 184.13 369.56 190.457C369.56 198.871 365.482 203.078 357.326 203.078C355.583 203.097 353.866 202.652 352.353 201.788C350.839 200.924 349.583 199.674 348.715 198.164C348.144 197.216 347.328 196.439 346.352 195.915C345.376 195.391 344.277 195.139 343.171 195.186H339.514V199.14C339.514 201.765 338.452 203.078 336.346 203.078C335.215 203.025 334.117 202.689 333.151 202.101C332.185 201.513 331.383 200.691 330.818 199.712C329.28 197.656 328.447 195.16 328.442 192.594C328.442 190.07 330.026 188.808 333.177 188.808V174.588C333.228 173.478 333.044 172.369 332.638 171.334C332.231 170.299 331.611 169.361 330.818 168.581C329.234 167.117 328.442 166.074 328.442 165.485C328.442 164.896 328.762 164.795 329.419 164.475C341.407 158.585 348.03 155.64 349.288 155.64C350.546 155.64 355.669 157.884 364.657 162.371C368.937 160.032 373.336 157.914 377.835 156.027C378.49 155.819 379.161 155.661 379.84 155.556C380.519 155.677 381.185 155.863 381.829 156.112C382.952 156.504 388.884 159.791 399.624 165.973V199.78C399.624 201.883 398.765 202.926 397.046 202.926C395.08 202.87 393.166 202.289 391.502 201.244C390.653 200.86 389.927 200.251 389.404 199.482C388.881 198.713 388.58 197.814 388.536 196.885C388.569 195.949 388.797 195.03 389.206 194.186C389.615 193.343 390.196 192.594 390.912 191.988C391.615 191.394 392.189 190.661 392.598 189.836C393.006 189.012 393.241 188.112 393.288 187.192V169.439L379.183 162.388L364.657 169.473L349.355 161.917L336.918 167.605Z" fill="#2B347A"/>
<path d="M339.413 228.892C332.672 228.892 329.302 225.913 329.302 219.956C329.302 213.999 332.672 211.021 339.413 211.021H352.321V209.439C352.321 207.537 353.383 206.595 355.489 206.595C357.596 206.595 358.657 207.537 358.657 209.439V211.021H368.768C369.203 210.989 369.639 211.047 370.05 211.191C370.461 211.335 370.837 211.563 371.156 211.859C371.475 212.155 371.73 212.513 371.904 212.912C372.078 213.311 372.168 213.741 372.168 214.176C372.168 214.611 372.078 215.041 371.904 215.44C371.73 215.838 371.475 216.197 371.156 216.493C370.837 216.789 370.461 217.016 370.05 217.16C369.639 217.305 369.203 217.363 368.768 217.331H358.657V222.514C359.3 222.445 359.95 222.53 360.554 222.761C361.157 222.992 361.697 223.363 362.129 223.843C362.889 225.01 363.245 226.393 363.14 227.781C363.256 229.214 362.802 230.635 361.876 231.736C361.365 232.209 360.761 232.571 360.103 232.8C359.444 233.028 358.746 233.119 358.051 233.065C357.291 233.095 356.533 232.971 355.823 232.699C355.113 232.427 354.467 232.013 353.922 231.483C353.418 231.052 353.008 230.521 352.718 229.925C352.428 229.329 352.265 228.679 352.237 228.017C347.99 228.628 343.703 228.92 339.413 228.892ZM339.413 222.581H352.321V217.331H339.413C336.834 217.331 335.554 218.206 335.554 219.956C335.554 221.706 336.801 222.514 339.413 222.514V222.581Z" fill="#2B347A"/>
<path d="M387.744 136.776C387.908 138.931 387.218 141.064 385.823 142.716C385.007 143.426 384.058 143.965 383.03 144.304C382.003 144.642 380.919 144.772 379.84 144.685C378.748 144.773 377.65 144.633 376.614 144.276C375.579 143.918 374.628 143.351 373.823 142.608C373.018 141.866 372.376 140.966 371.936 139.963C371.497 138.961 371.27 137.879 371.27 136.785C371.27 135.691 371.497 134.608 371.936 133.606C372.376 132.604 373.018 131.703 373.823 130.961C374.628 130.219 375.579 129.651 376.614 129.294C377.65 128.936 378.748 128.797 379.84 128.884C380.917 128.799 382 128.928 383.027 129.263C384.054 129.598 385.004 130.133 385.823 130.836C387.216 132.489 387.906 134.622 387.744 136.776ZM377.464 136.776C377.451 137.086 377.502 137.394 377.612 137.683C377.722 137.973 377.889 138.237 378.105 138.459C378.61 138.852 379.233 139.065 379.874 139.065C380.515 139.065 381.138 138.852 381.643 138.459C382.016 137.945 382.217 137.327 382.217 136.692C382.217 136.058 382.016 135.439 381.643 134.925C381.138 134.532 380.515 134.319 379.874 134.319C379.233 134.319 378.61 134.532 378.105 134.925C377.867 135.167 377.687 135.459 377.576 135.779C377.465 136.099 377.427 136.44 377.464 136.776Z" fill="#2B347A"/>
</g>
<defs>
<clipPath id="clip0_29_965">
<rect width="540" height="369" fill="white"/>
</clipPath>
</defs>
</svg>
