<?xml version="1.0" encoding="utf-8"?>
<!-- Generator: Adobe Illustrator 25.4.0, SVG Export Plug-In . SVG Version: 6.00 Build 0)  -->
<svg version="1.1" id="Layer_1" xmlns="http://www.w3.org/2000/svg" xmlns:xlink="http://www.w3.org/1999/xlink" x="0px" y="0px"
	 viewBox="0 0 1200 300" style="enable-background:new 0 0 1200 300;" xml:space="preserve">
<style type="text/css">
	.st0{fill-rule:evenodd;clip-rule:evenodd;fill:#00ABA5;}
	.st1{fill:#EA7826;}
	.st2{fill:#00ABA5;}
</style>
<g>
	<g>
		<g id="Shape_14_11_">
			<g>
				<path class="st0" d="M439.1,134.9c-8.5,5.9-20.5,8.4-28,15.4c0.7,9.3-1.6,21.7,1.4,28.7h6.3c5.5-5.7,11.3-11.1,20.3-13.3
					c-1.7-17.2-14.3-10.5-18.9-2.8c-0.6-2.1,1-7.7,0.7-9.8c6.5-0.9,9.4-7.1,15.4-7c3.6,0,8.4,4.1,12.6,6.3c4.7,2.4,9.9,3.7,12.6,7
					c-0.9,5.8-5,8.5-7,13.3c2.7,4.1,6.1,7.5,14,6.3c1.2-8.8,1.5-20,1.4-28C461.6,143.6,450.2,139.4,439.1,134.9z M514.7,52.3
					c-6.2,8-14.5,14-16.1,26.6c3,2.3,7.8-0.5,11.9,1.4c3.8,6.4-1,16.8,0.7,23.1c-10.4,1.6-15.4,17.2-4.2,21.7c3-3.9,12-7.1,14-14.7
					c1.8-6.9,1.9-25.3,0-32.2c-1.6-5.6-8-7.1-10.5-9.1c1.9-0.2,1.3-2.9,2.8-3.5c6,2.7,18.5,15.4,24.5,4.9
					C528.3,66.2,525.2,55.6,514.7,52.3z M459.4,74c-1.4,0.9-1.8,2.9-3.5,3.5c-0.7,23.1,32.2,16.8,29.4-2.8
					c-1.8-12.9-21.9-16.3-32.2-21c14.6-5,22.7-16.5,25.9-32.9h-7c-4.6,11.3-9,22.7-23.8,23.8c0.6-13.7-16.6-9.3-16.8,0.7
					c2.6,5.3,7.6,8.3,14,9.8c-11.4,7.3-24.8,12.5-33.6,22.4c2.4,6.5,8.6,9.1,12.6,14c-2.7,7.1-10.4,9.2-12.6,16.8
					c6.2,6.1,12.5,12.2,20.3,16.8c6.9-2.4,8.3-10.4,14.7-13.3c7.8,3.4,12.5,9.9,20.3,13.3c8.2-5.2,24.3-21.2,12.6-30.8
					c-4.5,4.8-8.2,10.5-12.6,15.4c-7.1-1.6-9.8-10.5-16.8-10.5c-6.9,0-8.8,7.6-14.7,11.2c-3.2-2.5-9.9-4.2-9.8-7.7
					c0.1-3.4,14.5-10.1,13.3-14.7c-4.3-4.8-9.2-9-13.3-14c6.5-2.1,13.2-10,21.7-11.2c11.1-1.5,22.2,5.1,25.9,14
					C468,81.3,464.2,74.4,459.4,74z M364.2,77.5c2.8,4.1,9.5,0.6,13.3,4.2c1.1,1,0.6,3.6,0.7,5.6c-17.3-0.2-30.1,0.5-44.8,0
					c1.7-11-6.1-12.5-8.4-19.6c7.2-1.7,26.3,8.1,27.3-7c-7.8,3.5-20-11.1-24.5-7.7c-7.2,5.4-16.8,15.7-14.7,26.6
					c2.2-0.3,10-0.3,11.2,2.8c-0.3,5.7,0.2,14.7,0,22.4c-5.8-0.2-7.8,3.4-11.9,4.9c-1.1,8.8,1.6,13.8,7,16.1
					c6.6-7.8,16.9-12.1,14-29.4c15.1,1.3,29.7,0.7,44.1,1.4v8.4c-6.4-0.7-8.1,1.8-11.2,5.6c-0.5,7.5,2.1,11.9,7,14
					c4.7-4.2,9.1-8.6,13.3-13.3c-1.4-12.6,3-25.2-0.7-34.3c-2.3-5.6-8.8-6-7.7-11.9c7.7,5.6,21.9,8.1,26.6-2.1
					C398.8,58.5,387,58.7,381,53C373.6,59.3,368.1,67.6,364.2,77.5z M883.7,92.2c-1.7-0.4-3.2-1-5.6-0.7
					c-2.9,7.6-3.6,17.4-11.9,19.6c-7.3-6.5-13.5-14-30.1-11.2c-0.2-10.8,0-21.9-7-25.9c7.2-3.6,13.4-8.1,21-11.2
					c6.5,4.5,17.9,7.7,21,13.3c-3.4-0.4-4.3-3.2-8.4-2.8c-7.3,3-3.1,13.7,2.1,16.1c13.1,0.9,20.1-4.2,18.9-17.5
					c-8.5-9.9-20.5-16.3-35-20.3c-5.8,3.7-10.6,6.9-18.2,11.9c-4.6,3-15.1,6.9-14.7,12.6c0.3,5.1,8.7,5.3,10.5,11.2
					c1.2,4.1-0.8,5.9,0,12.6c-24.7,0.6,0.1,17.2,5.6,20.3c3.8-1.6,4.8-5.9,4.2-11.9c11.8-3.8,14.3,9.7,22.4,11.9
					C878.5,125.7,886.1,110.8,883.7,92.2z M651.2,59.3c-4.9-2-8-7.4-11.9-6.3c-8.3,8-23.5,29.2,0.7,28.7c6.9,20.7-3.2,33.3-28,28
					c-3.4-3.4-7.5-6-10.5-9.8c16.5-12.5-3.4-26.2-11.2-32.2c6.2,3.7,15.5-0.6,16.1-7c-1.9-4.1-8.3-3.4-12.6-4.9
					c-2.9-1-5.3-4-8.4-3.5c-4.4,0.7-12.7,11.9-12.6,18.2c0,2.4,1.5,3.6,1.4,5.6c-9.3,0.2-13.2,5.9-19.6,9.1c1.7,7.9-2.3,20,0,27.3
					c3.3,10.5,17.2,8.9,16.8-2.8c-1.8-4.5-5.5-7.1-9.8-9.1c1.7-2.6,0.1-6.8,0-9.8c10.1-4.8,28-2.9,35.7,2.8c-2.2,4.6-7.6,7.3-7,11.9
					c0.8,6,12.9,9.3,15.4,14.7c11.3,1.6,24.3,0.5,33.6-2.1c10.6-5.4,16.5-22.9,11.2-37.8c-2.3-6.4-8.9-9-11.2-12.6
					c6.6,4.1,22.6,4.9,21.7-3.5C660.5,59.2,655.3,60.9,651.2,59.3z M842.4,125.8c-10.8,7.9-28.3,9-24.5,31.5c5,5,7.6,12.4,16.1,14
					c11.3-3.4,17.7-28,2.1-29.4c-3.4-0.3-4.6,1.4-6.3,1.4c3.6-2.3,6.9-4.8,11.2-6.3c3.5,5,18.7,6.8,20.3,13.3
					c1.5,6.3-4.3,6.8-7,11.9c1.6,5.1,7.6,8.2,12.6,7.7c3.8-6.5,2.4-18.2,2.8-28C862.6,134.4,852.1,130.5,842.4,125.8z M835.4,153.8
					v5.6c-3.4-0.4-5.6-2-7.5-4c-0.3,0-0.4-0.1-0.2-0.2c0.1,0.1,0.2,0.2,0.2,0.2C829.2,155.6,833.6,155.3,835.4,153.8z M803.9,76.1
					c-8.6-8.9-19.2-15.8-29.4-23.1c-8,3.7-14.4,8.9-22.4,12.6c-5.8-5.4-14.5-7.9-22.4-11.2c9-2.4,11.1-11.7,20.3-14
					c0-6.7,3-13.7-0.7-18.2c-2.6-1.8-5.1,1.6-6.3,3.5c-1.9-1.4-3.2-4.1-6.3-4.9c-11.8-3-32.7,2.3-46.2,0c-3.4,7-17.4,12-20.3,22.4
					c-1.6,5.8,0,16.9,0,25.9v55.3c0,9.4-1.9,21.2,0,28c0.7,2.5,7.3,10.1,9.8,13.3c3.4,4.4,8.9,11.2,11.2,11.9
					c13.8,4.4,29.6-3.3,43.4,0c8.7-5.1,26.6-13.5,18.9-25.9c-10,2-13.3,13.9-23.1,16.1c-8.6,1.9-19.8-2.6-32.2-1.4
					c-7-6.5-13.2-13.8-19.6-21c2-31.7-0.9-62,0-95.9c5.3-3.6,12.4-19.6,18.9-21.7c4.5-1.5,28.3-1.2,32.2,0c4.3,1.4,6.2,7.1,9.1,8.4
					c-4.6,3.5-7.3,9-14.7,9.8c-5.8-22.6-28.9,6.5-5.6,10.5c-4.3,4-29.8,12.8-29.4,20.3c0.3,5.5,9.8,7.2,11.9,12.6
					c-3.7,4.9-9.2,8.1-11.9,14c5,7.1,12.2,12.1,19.6,16.8c5.1-3.6,8-9.3,13.3-12.6c7.4,2.1,10,12.3,18.2,11.9
					c6.9-0.3,24.1-24.5,11.2-28.7c-5.1,3.3-6.7,10.1-11.9,13.3c-6.8-1.1-8.6-9-14.7-9.1c-6.4-0.1-7.8,7.2-14,9.8
					c-3-1.7-6.8-2.5-7.7-6.3c4.5-3.6,11.4-7.1,11.2-12.6c-0.3-6.1-8.8-7.2-10.5-13.3c6.3-1.6,12.5-9.6,21-9.8
					c8-0.2,18.9,6,19.6,13.3c-6.7,1.6-6.3-4-11.2-4.2c-9.1,7.4,0,19.1,9.1,18.9c9.7-0.2,15.3-10.1,14.7-19.6c5.8-0.5,9.6-3,14.7-4.2
					c7.8,5.3,15.5,10.6,23.1,16.1v21c-1.5,3.6-7.1,3.1-7,8.4c2.8,4.2,6.9,7.1,13.3,7.7C809,110.9,801.9,90.6,803.9,76.1z
					 M733.7,130.5c-4.9-3.4-11-5.4-15.8-8.9c-7.5,3.7-15.2,7.2-21.2,12.6c0.9,8.1-0.1,14.5,1.2,22.4c5.6,0.9,7.8-2,10-4.9
					c-0.9-4.4-4.3-6-5-10.5c5-4.2,11.1-7.1,16.8-10.5c3.8,1.2,7,3.1,9.9,5.3c0.1,7.2-1,15.7,1.2,20.6h0.8h4.2h0.8
					c2.1-4.9,1-13.5,1.2-20.6c2.9-2.2,6.1-4.1,9.9-5.3c5.7,3.4,11.8,6.3,16.8,10.5c-0.7,4.5-4.1,6.1-5,10.5c2.2,2.9,4.4,5.8,10,4.9
					c1.4-7.9,0.3-14.3,1.2-22.4c-6-5.4-13.7-8.9-21.2-12.6C744.7,125.1,738.6,127.1,733.7,130.5z"/>
			</g>
		</g>
		<g>
			<path class="st1" d="M301.2,254h-2.9c0-2.1-0.3-3.4-1-3.9c-0.7-0.6-2.3-0.8-4.8-0.8c-3,0-5,0.3-5.8,0.8c-0.9,0.5-1.3,1.7-1.3,3.5
				c0,2.1,0.3,3.3,1,3.8c0.7,0.4,2.7,0.8,6.1,0.9c4,0.2,6.5,0.7,7.6,1.5c1.1,0.8,1.6,2.7,1.6,5.6c0,3.1-0.6,5.2-1.9,6.1
				c-1.2,0.9-4,1.4-8.2,1.4c-3.7,0-6.1-0.5-7.3-1.4c-1.2-0.9-1.8-2.8-1.8-5.6l0-1.1h2.9v0.6c0,2.3,0.3,3.7,1,4.3
				c0.7,0.6,2.5,0.8,5.4,0.8c3.3,0,5.3-0.3,6.1-0.8c0.8-0.6,1.1-2,1.1-4.4c0-1.6-0.3-2.6-0.8-3.1c-0.5-0.5-1.6-0.8-3.2-0.9l-3-0.2
				l-2.8-0.1c-4.3-0.3-6.5-2.5-6.5-6.7c0-2.9,0.6-4.8,1.9-5.8c1.3-1,3.8-1.5,7.5-1.5c3.8,0,6.3,0.5,7.5,1.4
				C300.6,249,301.2,251,301.2,254z"/>
			<path class="st1" d="M324.1,247v2.9h-2.6V247H324.1z M324.1,254.7v17.9h-2.6v-17.9H324.1z"/>
			<path class="st1" d="M357.5,267.2h2.7l0,0.7c0,1.9-0.6,3.2-1.7,3.9c-1.1,0.7-3.1,1.1-5.9,1.1c-3.3,0-5.4-0.6-6.5-1.8
				c-1-1.2-1.5-3.7-1.5-7.6c0-3.6,0.5-6,1.6-7.2c1-1.2,3.1-1.8,6.1-1.8c3.3,0,5.4,0.5,6.5,1.6c1,1.1,1.5,3.3,1.5,6.7v1.4h-12.9
				c0,2.8,0.3,4.6,0.9,5.4c0.6,0.8,2,1.2,4.2,1.2c2.1,0,3.5-0.2,4.1-0.5c0.6-0.4,0.9-1.2,0.9-2.4V267.2z M357.5,262.1l0-0.8
				c0-1.9-0.3-3.2-1-3.8c-0.6-0.6-2-0.9-4.1-0.9c-2.1,0-3.5,0.3-4.1,1c-0.6,0.7-0.9,2.2-0.9,4.5H357.5z"/>
			<path class="st1" d="M380.8,254.7h2.6l-0.1,2.7l0.1,0.1c1-2,3-3,5.8-3c3,0,4.9,1,5.5,3h0.1c1.1-2,3.2-3,6.1-3
				c4.2,0,6.3,2.1,6.3,6.4v11.7h-2.6v-11.9c0-1.6-0.3-2.6-0.8-3.2c-0.6-0.6-1.6-0.8-3.2-0.8c-2.1,0-3.5,0.4-4.2,1.2
				s-1.1,2.3-1.1,4.5v10.3h-2.6v-11.7l0-0.8c0-2.3-1.3-3.5-3.9-3.5c-3.6,0-5.3,1.9-5.3,5.8v10.1h-2.6V254.7z"/>
			<path class="st1" d="M455,272.6V247h12.1c2.7,0,4.7,0.5,5.8,1.6c1.1,1.1,1.7,3,1.7,5.6c0,2.4-0.3,4-0.9,4.9
				c-0.6,0.9-1.8,1.5-3.5,1.8v0.1c2.7,0.2,4.1,1.8,4.1,4.9v6.5h-2.9v-5.9c0-3-1.3-4.5-3.9-4.5h-1h-8.7v10.3H455z M457.9,259.8h8.3
				c2.2,0,3.7-0.3,4.5-1c0.8-0.7,1.2-1.9,1.2-3.8c0-2.3-0.3-3.8-0.9-4.5c-0.6-0.7-1.9-1-3.8-1h-9.3V259.8z"/>
			<path class="st1" d="M507.6,267.2h2.7l0,0.7c0,1.9-0.6,3.2-1.7,3.9c-1.1,0.7-3.1,1.1-5.9,1.1c-3.3,0-5.4-0.6-6.5-1.8
				c-1-1.2-1.5-3.7-1.5-7.6c0-3.6,0.5-6,1.6-7.2c1-1.2,3.1-1.8,6.1-1.8c3.3,0,5.4,0.5,6.5,1.6c1,1.1,1.5,3.3,1.5,6.7v1.4h-12.9
				c0,2.8,0.3,4.6,0.9,5.4c0.6,0.8,2,1.2,4.2,1.2c2.1,0,3.5-0.2,4.1-0.5c0.6-0.4,0.9-1.2,0.9-2.4V267.2z M507.6,262.1l0-0.8
				c0-1.9-0.3-3.2-1-3.8c-0.6-0.6-2-0.9-4.1-0.9c-2.1,0-3.5,0.3-4.1,1c-0.6,0.7-0.9,2.2-0.9,4.5H507.6z"/>
			<path class="st1" d="M533.6,259.7H531c0-2.1,0.5-3.5,1.4-4.2c0.9-0.7,2.8-1.1,5.5-1.1c3,0,5,0.4,6,1.3c1,0.9,1.6,2.6,1.6,5v11.8
				h-2.6l0.2-1.9l-0.1,0c-1,1.5-3,2.2-6.1,2.2c-4.5,0-6.8-1.8-6.8-5.4c0-2.2,0.5-3.6,1.5-4.5c1-0.8,2.8-1.2,5.5-1.2
				c3.1,0,5,0.6,5.6,1.9l0.1,0v-2.2c0-2-0.3-3.4-0.8-4c-0.6-0.6-1.8-0.9-3.7-0.9c-3.2,0-4.8,0.9-4.8,2.7
				C533.6,259.3,533.6,259.4,533.6,259.7z M537.8,263.7c-2,0-3.3,0.2-3.9,0.6c-0.6,0.4-0.9,1.3-0.9,2.7c0,1.4,0.3,2.4,0.9,2.9
				c0.6,0.5,1.8,0.7,3.6,0.7c3.7,0,5.5-1.1,5.5-3.4c0-1.4-0.4-2.4-1.1-2.8C541.3,264,539.9,263.7,537.8,263.7z"/>
			<path class="st1" d="M566.9,254.7h2.6l-0.1,2.3l0.1,0.1c0.9-1.7,2.9-2.6,5.9-2.6c2.7,0,4.5,0.7,5.5,2c1,1.3,1.5,3.8,1.5,7.4
				c0,3.4-0.5,5.7-1.5,7c-1,1.3-2.8,2-5.4,2c-2.9,0-4.9-0.8-5.8-2.4h-0.1v9.8h-2.6V254.7z M574.6,256.6c-2.1,0-3.5,0.5-4.1,1.4
				c-0.6,0.9-1,2.8-1,5.8c0,2.8,0.3,4.6,1,5.5c0.7,0.9,2.1,1.4,4.1,1.4c2,0,3.3-0.4,3.9-1.3c0.6-0.9,0.9-2.7,0.9-5.5
				c0-3-0.3-5-0.9-5.9C578,257,576.6,256.6,574.6,256.6z"/>
			<path class="st1" d="M605.8,269.1v3.7c0,2.3-0.8,3.5-2.5,3.5c-0.2,0-0.4,0-0.7,0v-1.4c1.1-0.1,1.6-0.6,1.6-1.6l0-0.7H603v-3.4
				H605.8z"/>
			<path class="st1" d="M669.8,264h2.9v1c0,3.5-0.6,5.6-1.8,6.5c-1.2,0.9-4.2,1.3-8.9,1.3c-4.3,0-7-0.8-8.1-2.3
				c-1.2-1.5-1.7-5.1-1.7-10.8c0-4.4,0.1-7.2,0.4-8.3c0.3-1.1,1-2.2,2.2-3.1c1.4-1,4.6-1.6,9.4-1.6c3.3,0,5.4,0.5,6.6,1.5
				c1.1,1,1.7,3,1.7,5.9l0,0.7h-2.9l0-0.8c0-2.1-0.3-3.4-1-4c-0.7-0.6-2.2-0.9-4.5-0.9c-4.1,0-6.6,0.3-7.5,1
				c-0.9,0.7-1.4,2.6-1.4,5.7c0,7.2,0.3,11.4,0.9,12.6c0.6,1.2,2.7,1.9,6.3,1.9c3.4,0,5.5-0.3,6.3-0.8c0.8-0.5,1.3-1.9,1.3-4
				L669.8,264z"/>
			<path class="st1" d="M695,259.7h-2.6c0-2.1,0.5-3.5,1.4-4.2c0.9-0.7,2.8-1.1,5.5-1.1c3,0,5,0.4,6,1.3c1,0.9,1.6,2.6,1.6,5v11.8
				h-2.6l0.2-1.9l-0.1,0c-1,1.5-3,2.2-6.1,2.2c-4.5,0-6.8-1.8-6.8-5.4c0-2.2,0.5-3.6,1.5-4.5c1-0.8,2.8-1.2,5.5-1.2
				c3.1,0,5,0.6,5.6,1.9l0.1,0v-2.2c0-2-0.3-3.4-0.8-4c-0.6-0.6-1.8-0.9-3.7-0.9c-3.2,0-4.8,0.9-4.8,2.7
				C694.9,259.3,694.9,259.4,695,259.7z M699.2,263.7c-2,0-3.3,0.2-3.9,0.6c-0.6,0.4-0.9,1.3-0.9,2.7c0,1.4,0.3,2.4,0.9,2.9
				c0.6,0.5,1.8,0.7,3.6,0.7c3.7,0,5.5-1.1,5.5-3.4c0-1.4-0.4-2.4-1.1-2.8C702.6,264,701.2,263.7,699.2,263.7z"/>
			<path class="st1" d="M728.2,254.7h2.6l-0.1,2.7l0.1,0.1c1-2,3-3,5.8-3c3,0,4.9,1,5.5,3h0.1c1.1-2,3.2-3,6.2-3
				c4.2,0,6.3,2.1,6.3,6.4v11.7h-2.6v-11.9c0-1.6-0.3-2.6-0.8-3.2c-0.6-0.6-1.6-0.8-3.2-0.8c-2.1,0-3.5,0.4-4.2,1.2
				c-0.7,0.8-1.1,2.3-1.1,4.5v10.3h-2.6v-11.7l0-0.8c0-2.3-1.3-3.5-3.9-3.5c-3.6,0-5.3,1.9-5.3,5.8v10.1h-2.6V254.7z"/>
			<path class="st1" d="M776.3,272.6V247h2.6v9.9l0.1,0.1c0.6-1.7,2.6-2.6,5.9-2.6c2.6,0,4.4,0.7,5.4,2c1,1.4,1.5,3.8,1.5,7.4
				c0,3.4-0.5,5.7-1.6,7c-1.1,1.3-3,2-5.7,2c-2.8,0-4.7-0.8-5.6-2.5l-0.1,0l0.1,2.2H776.3z M784.1,256.6c-2.1,0-3.4,0.4-4.1,1.3
				c-0.7,0.9-1,2.6-1,5.2c0,3.2,0.3,5.3,0.9,6.2c0.6,0.9,2.1,1.3,4.3,1.3c1.9,0,3.2-0.5,3.8-1.4c0.6-0.9,0.9-2.8,0.9-5.6
				c0-3-0.3-4.9-0.9-5.8C787.4,257,786.1,256.6,784.1,256.6z"/>
			<path class="st1" d="M819.7,254.4c3.3,0,5.4,0.6,6.4,1.7c1,1.1,1.5,3.6,1.5,7.5c0,3.8-0.5,6.3-1.5,7.5c-1,1.1-3.1,1.7-6.4,1.7
				c-3.3,0-5.4-0.6-6.4-1.7c-1-1.1-1.5-3.6-1.5-7.5c0-3.8,0.5-6.3,1.5-7.5C814.2,255,816.4,254.4,819.7,254.4z M819.7,256.6
				c-2.3,0-3.8,0.4-4.3,1.1c-0.6,0.8-0.8,2.7-0.8,5.9c0,3.2,0.3,5.1,0.8,5.9c0.6,0.8,2,1.1,4.3,1.1c2.3,0,3.8-0.4,4.3-1.1
				c0.6-0.8,0.8-2.7,0.8-5.9c0-3.2-0.3-5.1-0.8-5.9C823.4,257,822,256.6,819.7,256.6z"/>
			<path class="st1" d="M863,247v25.5h-2.6l0.1-2.3l-0.1,0c-0.8,1.7-2.7,2.6-5.7,2.6c-2.7,0-4.6-0.7-5.6-2c-1-1.3-1.5-3.8-1.5-7.5
				c0-3.4,0.5-5.7,1.5-7c1-1.3,2.8-2,5.4-2c3.3,0,5.2,0.8,5.8,2.5l0.1,0V247H863z M855.2,256.6c-1.9,0-3.2,0.4-3.9,1.3
				c-0.6,0.9-1,2.7-1,5.4c0,3,0.3,5,0.9,5.9c0.6,0.9,1.9,1.4,3.9,1.4c2.2,0,3.6-0.5,4.2-1.4c0.6-0.9,1-3,1-6.1
				c0-2.6-0.4-4.3-1.1-5.2C858.6,257,857.2,256.6,855.2,256.6z"/>
			<path class="st1" d="M886.7,247v2.9h-2.6V247H886.7z M886.7,254.7v17.9h-2.6v-17.9H886.7z"/>
			<path class="st1" d="M910.5,259.7h-2.6c0-2.1,0.5-3.5,1.4-4.2c0.9-0.7,2.8-1.1,5.5-1.1c3,0,5,0.4,6,1.3c1,0.9,1.6,2.6,1.6,5v11.8
				h-2.6l0.2-1.9l-0.1,0c-1,1.5-3,2.2-6.1,2.2c-4.5,0-6.8-1.8-6.8-5.4c0-2.2,0.5-3.6,1.5-4.5c1-0.8,2.8-1.2,5.5-1.2
				c3.1,0,5,0.6,5.6,1.9l0.1,0v-2.2c0-2-0.3-3.4-0.8-4c-0.6-0.6-1.8-0.9-3.7-0.9c-3.2,0-4.8,0.9-4.8,2.7
				C910.5,259.3,910.5,259.4,910.5,259.7z M914.7,263.7c-2,0-3.3,0.2-3.9,0.6c-0.6,0.4-0.9,1.3-0.9,2.7c0,1.4,0.3,2.4,0.9,2.9
				c0.6,0.5,1.8,0.7,3.6,0.7c3.7,0,5.5-1.1,5.5-3.4c0-1.4-0.4-2.4-1.1-2.8C918.2,264,916.8,263.7,914.7,263.7z"/>
		</g>
		<g>
			<path class="st2" d="M305.1,226.9h-19l-2.7,8.4h-8.8l14.6-43.9h12.5l14.8,43.9h-8.7L305.1,226.9z M303.2,220.7l-7.6-22.9
				l-7.5,22.9H303.2z"/>
			<path class="st2" d="M361.2,191.4v43.9H347l-12.6-24.1c-0.6-1.2-1.6-3.3-2.9-6.3l-1.4-3.2l-1.4-3.2h-0.3l0.1,2.9l0.1,2.9l0.1,5.8
				v25.2h-8.3v-43.9h14.1l11.4,22.3c1,2,2.2,4.4,3.5,7.2l1.7,3.6l1.7,3.6h0.3l-0.1-2.8l-0.1-2.8l-0.1-5.7v-25.3H361.2z"/>
			<path class="st2" d="M386.2,211.9h19.4l0.1,8.7c0,6.4-1.2,10.4-3.6,12.3c-2.4,1.8-7.7,2.8-16,2.8c-7.6,0-12.6-1.2-15.1-3.7
				c-2.5-2.4-3.7-7.4-3.7-15c0-9.6,0.5-15.7,1.5-18.2c1.2-3.1,3.1-5.2,5.6-6.2c2.5-1.1,6.7-1.6,12.7-1.6c7.8,0,12.9,0.8,15.1,2.5
				c2.3,1.7,3.4,5.3,3.4,11.1h-8.4c-0.2-2.9-0.8-4.7-1.9-5.4c-1.1-0.7-3.9-1-8.3-1c-4.8,0-7.9,0.6-9.2,1.8c-1.3,1.2-1.9,4-1.9,8.5
				l0,4.4l0.1,5.6c0,4.4,0.6,7.1,1.9,8.3c1.3,1.2,4.3,1.8,9,1.8c4.5,0,7.4-0.5,8.7-1.5s1.9-3.4,1.9-7.1l0-1.8h-11V211.9z"/>
			<path class="st2" d="M419.9,191.4v17.9h3.9l14.6-17.9h10.4L431,212.7l19.6,22.6H440l-16.1-19h-4v19h-8.3v-43.9H419.9z"/>
			<path class="st2" d="M472.3,191c8,0,13.1,1.3,15.4,4c2.3,2.7,3.4,8.6,3.4,17.8c0,10.1-1.2,16.4-3.5,19c-2.3,2.6-7.9,3.9-16.8,3.9
				c-8,0-13.1-1.3-15.5-3.9c-2.3-2.6-3.5-8.3-3.5-17.1c0-10.5,1.1-17.1,3.4-19.7C457.7,192.3,463.3,191,472.3,191z M471.6,198.1
				c-5.6,0-8.9,0.7-9.8,2.2c-0.9,1.4-1.4,6.4-1.4,14.9c0,6.3,0.6,10.1,1.7,11.4c1.1,1.3,4.4,1.9,9.8,1.9c5.2,0,8.3-0.7,9.3-2.2
				s1.5-5.8,1.5-13.2c0-7.4-0.5-11.7-1.5-13.1C480.2,198.8,477,198.1,471.6,198.1z"/>
			<path class="st2" d="M496.8,235.3v-43.9h21.7c5.4,0,9.1,0.9,11.1,2.8c2,1.9,3.1,5.2,3.1,10.1c0,4.4-0.5,7.5-1.5,9.1
				c-1,1.6-3.1,2.8-6.3,3.4v0.3c4.9,0.3,7.3,3.1,7.3,8.5v9.7h-8.3v-8c0-4.5-2.2-6.8-6.7-6.8h-12v14.8H496.8z M505.1,213.5h12
				c2.9,0,4.7-0.5,5.7-1.5c0.9-1,1.4-3.1,1.4-6.1c0-3.1-0.4-5.2-1.2-6.1c-0.8-0.9-2.6-1.4-5.3-1.4h-12.6V213.5z"/>
		</g>
		<g>
			<path class="st2" d="M599.2,203.4h-4.9c0-3.5-0.6-5.7-1.8-6.7c-1.2-0.9-3.9-1.4-8.3-1.4c-5.1,0-8.5,0.5-10,1.4
				c-1.5,0.9-2.2,2.9-2.2,6c0,3.5,0.6,5.6,1.8,6.4c1.2,0.8,4.6,1.3,10.4,1.6c6.8,0.3,11.1,1.2,12.9,2.6c1.8,1.4,2.8,4.6,2.8,9.6
				c0,5.4-1.1,8.8-3.2,10.4c-2.1,1.6-6.8,2.4-14,2.4c-6.3,0-10.4-0.8-12.5-2.4c-2.1-1.6-3.1-4.8-3.1-9.6l0-1.9h4.9v1.1
				c0,3.9,0.6,6.3,1.8,7.3c1.2,0.9,4.2,1.4,9.2,1.4c5.6,0,9.1-0.5,10.4-1.4c1.3-0.9,1.9-3.5,1.9-7.6c0-2.7-0.4-4.4-1.3-5.3
				c-0.9-0.9-2.7-1.4-5.5-1.6l-5.1-0.3l-4.9-0.3c-7.4-0.5-11.1-4.3-11.1-11.5c0-5,1.1-8.3,3.2-9.9c2.1-1.7,6.4-2.5,12.9-2.5
				c6.5,0,10.8,0.8,12.7,2.3C598.2,195,599.2,198.4,599.2,203.4z"/>
			<path class="st2" d="M632.6,226h-22l-3.4,9.2H602l16-43.6h6.9l16.3,43.6H636L632.6,226z M631.2,222.3l-9.7-26.6l-9.5,26.6H631.2z
				"/>
			<path class="st2" d="M682.8,191.6v43.6h-8.1l-18.3-29.6l-3-4.9l-1.5-2.4l-1.5-2.4h-0.1l0,1.6l0,1.7v3.3v32.8h-4.9v-43.6h8
				l15.9,26l4.1,6.8l2.1,3.4l2,3.4h0.1l0-1.6l0-1.7v-3.3v-33.1H682.8z"/>
			<path class="st2" d="M696,191.6v19h4.3l17.9-19h6.3l-19.9,21l22.3,22.6h-6.7l-19.9-20.4H696v20.4h-4.9v-43.6H696z"/>
			<path class="st2" d="M730.5,235.2v-43.6h20.7c4.7,0,8,0.9,9.9,2.8c1.9,1.9,2.9,5.1,2.9,9.6c0,4-0.5,6.8-1.6,8.4
				c-1,1.6-3,2.6-6,3.1v0.1c4.6,0.3,6.9,3.1,6.9,8.4v11.1h-4.9v-10c0-5.1-2.2-7.6-6.6-7.6h-1.6h-14.8v17.6H730.5z M735.4,213.4h14.2
				c3.7,0,6.3-0.6,7.7-1.7c1.4-1.1,2-3.3,2-6.4c0-3.9-0.5-6.5-1.5-7.7c-1-1.2-3.2-1.8-6.5-1.8h-15.9V213.4z"/>
			<path class="st2" d="M798,226h-22l-3.4,9.2h-5.2l16-43.6h6.9l16.3,43.6h-5.1L798,226z M796.6,222.3l-9.7-26.6l-9.5,26.6H796.6z"
				/>
			<path class="st2" d="M848.2,191.6v43.6h-8.1l-18.3-29.6l-3-4.9l-1.5-2.4l-1.5-2.4h-0.1l0,1.6l0,1.7v3.3v32.8H811v-43.6h8l15.9,26
				l4.1,6.8l2.1,3.4l2,3.4h0.1l0-1.6l0-1.7v-3.3v-33.1H848.2z"/>
			<path class="st2" d="M871.7,196.2v39h-4.9v-39h-14.2v-4.6h33.2v4.6H871.7z"/>
			<path class="st2" d="M916.9,226h-22l-3.4,9.2h-5.2l16-43.6h6.9l16.3,43.6h-5.1L916.9,226z M915.4,222.3l-9.7-26.6l-9.5,26.6
				H915.4z"/>
		</g>
		<g id="Shape_3_11_">
			<g>
				<path class="st0" d="M665.3,179.4c-2.7,0-4.8,2.2-4.8,4.8c0,2.7,2.2,4.8,4.8,4.8c2.7,0,4.8-2.2,4.8-4.8
					C670.2,181.6,668,179.4,665.3,179.4z"/>
			</g>
		</g>
		<g id="Shape_4_11_">
			<g>
				<path class="st0" d="M773.9,183.2v4.6h22.8v-4.6H773.9z"/>
			</g>
		</g>
	</g>
</g>
</svg>
